PathFileType	4	(X/Y/Z)	/Users/itak/Documents/Research/Walk-IL/dataset/trc/00254_00009.trc
DataRate	CameraRate	NumFrames	NumMarkers	Units	OrigDataRate	OrigDataStartFrame	OrigNumFrames
100.000000	100.000000	4	53	mm	100.000000	274	549
Frame#	Time	RPSI			LPSI			L3			STRN			T10			C7			CLAV			RBAK			LBAK			LSHO			LUPA			LAEL			LAOL			LWTS			LWPS			LFRA			LIFD			LHPS			LHTS			RSHO			RUPA			RAEL			RAOL			RWTS			RWPS			RFRA			RIFD			RHTS			RHPS			RBHD			LFHD			RFHD			LBHD			LHIP			RHIP			RASI			LASI			LKNE			LTHI			LANK			LTIP			LTOE			LMT1			LMT5			LHEE			RKNE			RTHI			RANK			RTIP			RTOE			RMT1			RMT5			RHEE			
		X1	Y1	Z1	X2	Y2	Z2	X3	Y3	Z3	X4	Y4	Z4	X5	Y5	Z5	X6	Y6	Z6	X7	Y7	Z7	X8	Y8	Z8	X9	Y9	Z9	X10	Y10	Z10	X11	Y11	Z11	X12	Y12	Z12	X13	Y13	Z13	X14	Y14	Z14	X15	Y15	Z15	X16	Y16	Z16	X17	Y17	Z17	X18	Y18	Z18	X19	Y19	Z19	X20	Y20	Z20	X21	Y21	Z21	X22	Y22	Z22	X23	Y23	Z23	X24	Y24	Z24	X25	Y25	Z25	X26	Y26	Z26	X27	Y27	Z27	X28	Y28	Z28	X29	Y29	Z29	X30	Y30	Z30	X31	Y31	Z31	X32	Y32	Z32	X33	Y33	Z33	X34	Y34	Z34	X35	Y35	Z35	X36	Y36	Z36	X37	Y37	Z37	X38	Y38	Z38	X39	Y39	Z39	X40	Y40	Z40	X41	Y41	Z41	X42	Y42	Z42	X43	Y43	Z43	X44	Y44	Z44	X45	Y45	Z45	X46	Y46	Z46	X47	Y47	Z47	X48	Y48	Z48	X49	Y49	Z49	X50	Y50	Z50	X51	Y51	Z51	X52	Y52	Z52	X53	Y53	Z53	

275	2.74	-783.3309936523438	1005.129272460938	-296.3741149902344	-725.7514038085938	1016.695251464844	-400.905517578125	-745.5405883789062	1098.483276367188	-367.7102355957031	-534.7178955078125	1275.001586914062	-227.4015960693359	-747.5244140625	1225.162475585938	-366.1155090332031	-690.438232421875	1484.286254882812	-325.1141357421875	-555.6163330078125	1393.75341796875	-233.7087860107422	-793.8639526367188	1344.671997070312	-313.4093322753906	-644.6737060546875	1451.874267578125	-431.396484375	-541.2210083007812	1447.353271484375	-423.4183959960938	-514.2947387695312	1333.815673828125	-505.4620666503906	-456.46923828125	1130.048461914062	-517.89990234375	-538.6659545898438	1099.6533203125	-528.9385375976562	-386.7867736816406	932.7730712890625	-371.5052795410156	-343.5065612792969	909.406005859375	-441.9939575195312	-410.3916931152344	1032.89501953125	-494.2194213867188	-347.1090393066406	754.1785888671875	-335.4509582519531	-315.5787353515625	831.5286865234375	-407.3976135253906	-325.8410034179688	848.0045776367188	-341.7001953125	-740.2020263671875	1439.218017578125	-154.5663146972656	-797.4225463867188	1375.539428710938	-114.7472991943359	-860.841552734375	1099.845458984375	-112.1762771606445	-829.4066162109375	1094.34521484375	-202.3502502441406	-762.7960205078125	866.2587280273438	-68.56937408447266	-846.3040161132812	864.7385864257812	-53.62729644775391	-858.2259521484375	1030.348999023438	-89.38684844970703	-783.0367431640625	670.7607421875	-75.14168548583984	-764.1001586914062	740.9983520507812	-41.54000854492188	-835.5729370117188	752.8660278320312	-35.47118759155273	-668.95947265625	1643.341064453125	-255.8295288085938	-454.25927734375	1658.540649414062	-184.5617980957031	-522.7625122070312	1654.1162109375	-110.938850402832	-545.5999145507812	1647.94677734375	-321.5915832519531	-573.878173828125	957.9039916992188	-485.1533813476562	-738.908203125	965.9051513671875	-158.4359283447266	-638.9520874023438	1007.061706542969	-147.5297546386719	-504.4938049316406	998.23046875	-392.9179992675781	-643.8616333007812	478.6806945800781	-460.7101440429688	-605.9766845703125	620.3055419921875	-473.9587097167969	-943.2329711914062	84.89466094970703	-544.0836791992188	-790.8325805664062	300.4672241210938	-514.68017578125	-769.5497436523438	42.32399749755859	-430.3240356445312	-840.967529296875	50.98398590087891	-408.4375305175781	-830.9384155273438	34.72816848754883	-525.7974243164062	-1006.956909179688	126.3042526245117	-512.48583984375	-543.661865234375	507.9169616699219	-134.9822845458984	-642.9383544921875	760.605224609375	-109.1445693969727	-477.0300903320312	31.11407470703125	-215.5516815185547	-498.8186950683594	392.0824584960938	-143.2718658447266	-308.2625122070312	53.20560455322266	-86.47881317138672	-310.2295837402344	46.97933578491211	-156.7930297851562	-423.4587707519531	36.66738128662109	-118.3467636108398	-472.747802734375	29.49836158752441	-299.4317016601562	
276	2.75	-774.8609008789062	1006.199890136719	-292.6037902832031	-716.7279663085938	1017.422302246094	-396.8331909179688	-737.0191650390625	1099.541015625	-363.6845092773438	-527.27978515625	1276.289916992188	-222.1448516845703	-739.2738647460938	1226.229125976562	-361.9725646972656	-683.1463623046875	1485.323364257812	-320.2673950195312	-548.489501953125	1394.976196289062	-228.4465026855469	-786.199462890625	1345.544677734375	-309.1371154785156	-636.7516479492188	1453.19677734375	-426.3029174804688	-533.2818603515625	1448.96533203125	-418.0517578125	-506.6331481933594	1335.267456054688	-500.1874389648438	-451.094482421875	1130.837646484375	-513.1250610351562	-533.760009765625	1101.472778320312	-523.779541015625	-383.20751953125	930.828857421875	-369.2615356445312	-340.7603149414062	907.7586669921875	-440.3268127441406	-406.1360473632812	1032.734130859375	-490.7894897460938	-346.15673828125	751.2339477539062	-335.8034973144531	-313.8970336914062	828.98583984375	-406.9524841308594	-323.4278259277344	844.7459106445312	-341.0108642578125	-733.3887939453125	1439.941772460938	-149.9457550048828	-790.5650634765625	1376.079833984375	-110.4363708496094	-853.6837768554688	1100.443115234375	-108.6800918579102	-821.502197265625	1095.016723632812	-198.5786437988281	-756.9866333007812	866.3804321289062	-64.64959716796875	-840.5173950195312	865.417724609375	-50.18143844604492	-851.388916015625	1031.037963867188	-85.95078277587891	-778.72021484375	670.9656372070312	-72.00027465820312	-759.4097290039062	740.9066162109375	-38.07909774780273	-830.793701171875	753.444091796875	-32.28202438354492	-662.1373901367188	1644.469604492188	-250.7290496826172	-447.874267578125	1659.700561523438	-178.1967315673828	-516.7332153320312	1655.15625	-105.0221939086914	-538.4107055664062	1649.231323242188	-315.7991638183594	-564.0804443359375	958.193603515625	-479.7601928710938	-731.4796142578125	967.6516723632812	-154.1864929199219	-631.5975341796875	1009.000549316406	-142.6845397949219	-495.1307067871094	998.8764038085938	-387.4405212402344	-629.6412963867188	477.9870300292969	-455.6946716308594	-593.375244140625	620.0270385742188	-468.3102722167969	-938.6473388671875	91.468017578125	-544.2491455078125	-780.4458618164062	303.5730895996094	-511.9082946777344	-769.5227661132812	42.23887252807617	-430.3331604003906	-839.727294921875	52.10796356201172	-408.1198120117188	-829.5734252929688	35.40913391113281	-525.5947875976562	-1000.149963378906	135.6266174316406	-512.37939453125	-536.6329956054688	509.0371704101562	-130.7490997314453	-635.4173583984375	762.174560546875	-104.4189071655273	-476.6001586914062	31.68015289306641	-215.2029876708984	-492.9550170898438	392.5627136230469	-140.0269012451172	-306.6506042480469	50.64182281494141	-86.28822326660156	-309.1624450683594	45.23185729980469	-156.7368469238281	-422.7477722167969	37.03535461425781	-118.2229919433594	-472.4642028808594	29.9201602935791	-299.204345703125	
277	2.76	-766.4881591796875	1007.266906738281	-288.6726379394531	-707.8299560546875	1018.206359863281	-392.6009216308594	-728.6390380859375	1100.688354492188	-359.5412902832031	-519.919677734375	1277.662475585938	-216.8337249755859	-731.0791625976562	1227.3505859375	-357.7897033691406	-675.8701171875	1486.440185546875	-315.4274597167969	-541.43359375	1396.296264648438	-223.1423187255859	-778.57568359375	1346.498046875	-304.8584289550781	-628.8309936523438	1454.598510742188	-421.1965637207031	-525.3447875976562	1450.674926757812	-412.6153869628906	-498.8872985839844	1336.880004882812	-494.8861083984375	-445.7519836425781	1131.799560546875	-508.5060119628906	-528.8807983398438	1103.495361328125	-518.7728881835938	-379.7249450683594	929.0316772460938	-367.27001953125	-338.1578979492188	906.295654296875	-438.9239196777344	-401.9478759765625	1032.7470703125	-487.5998840332031	-345.5493469238281	748.4006958007812	-336.6315002441406	-312.439208984375	826.594482421875	-406.8709411621094	-321.2317810058594	841.5466918945312	-340.6749877929688	-726.6377563476562	1440.822265625	-145.3458099365234	-783.7954711914062	1376.798950195312	-106.1352462768555	-846.5910034179688	1101.199584960938	-105.1873397827148	-813.6204223632812	1095.840698242188	-194.7763519287109	-750.9096069335938	866.811279296875	-60.62060928344727	-834.4518432617188	866.2708740234375	-46.65606689453125	-844.5538940429688	1031.871215820312	-82.49594116210938	-773.876953125	671.4566040039062	-68.70720672607422	-754.2606811523438	741.1458129882812	-34.45969772338867	-825.579345703125	754.2273559570312	-28.98006820678711	-655.3900146484375	1645.659301757812	-245.6223297119141	-441.5687255859375	1660.92724609375	-171.805419921875	-510.7826538085938	1656.242797851562	-99.08339691162109	-531.2828979492188	1650.596801757812	-309.9802551269531	-554.3949584960938	958.6522827148438	-474.2042236328125	-724.2037353515625	969.2941284179688	-149.7978210449219	-624.4132080078125	1010.945739746094	-137.6982269287109	-485.9867553710938	999.6582641601562	-381.8139038085938	-614.5466918945312	477.3458251953125	-450.7498779296875	-580.2081909179688	619.8682250976562	-462.6818542480469	-933.1058959960938	98.65666961669922	-544.4290771484375	-768.9930419921875	306.8137512207031	-509.1041259765625	-769.4287719726562	42.05476760864258	-430.3002319335938	-838.2300415039062	53.43144607543945	-407.7784423828125	-827.785888671875	36.39009094238281	-525.4575805664062	-992.1451416015625	145.5583343505859	-512.2971801757812	-530.3552856445312	509.7974853515625	-126.9019165039062	-628.3859252929688	763.3963012695312	-99.719482421875	-476.2157897949219	32.17253494262695	-214.9470520019531	-487.7200622558594	392.8329162597656	-137.0948486328125	-305.3196411132812	48.58673095703125	-86.15325164794922	-308.2378540039062	43.84957122802734	-156.7257843017578	-422.1041564941406	37.40436172485352	-118.1489410400391	-472.2501220703125	30.26633453369141	-299.0404052734375	
278	2.77	-758.2492065429688	1008.337951660156	-284.533203125	-699.090576171875	1019.013244628906	-388.1774291992188	-720.4135131835938	1101.87646484375	-355.2387084960938	-512.6385498046875	1279.0810546875	-211.4819183349609	-722.9586181640625	1228.475830078125	-353.5457153320312	-668.6193237304688	1487.591430664062	-310.6032409667969	-534.4531860351562	1397.66845703125	-217.8134765625	-771.0126953125	1347.4765625	-300.5785217285156	-620.94775390625	1456.014770507812	-416.0946655273438	-517.4453735351562	1452.408569335938	-407.1427612304688	-491.0984802246094	1338.575073242188	-489.5843505859375	-440.3961486816406	1132.877685546875	-504.0407409667969	-523.9610595703125	1105.651733398438	-513.9672241210938	-376.3302612304688	927.3523559570312	-365.5099487304688	-335.6577758789062	904.9788818359375	-437.7479248046875	-397.7931823730469	1032.888793945312	-484.6173095703125	-345.2582092285156	745.6831665039062	-337.8527526855469	-311.1653137207031	824.333251953125	-407.0836181640625	-319.2515258789062	838.40234375	-340.6349487304688	-719.9672241210938	1441.8056640625	-140.779296875	-777.1377563476562	1377.64697265625	-101.8588943481445	-839.60302734375	1102.064697265625	-101.686882019043	-805.8154296875	1096.763427734375	-190.9386138916016	-744.5709228515625	867.5105590820312	-56.48098754882812	-828.1259155273438	867.2280883789062	-43.05942535400391	-837.7595825195312	1032.790649414062	-79.01361846923828	-768.4141845703125	672.1848754882812	-65.2266845703125	-748.6134033203125	741.6893920898438	-30.65768814086914	-819.8921508789062	755.1406860351562	-25.56125450134277	-648.7261352539062	1646.873779296875	-240.5356597900391	-435.3560791015625	1662.188354492188	-165.408935546875	-504.9281616210938	1657.342407226562	-93.14250946044922	-524.2216796875	1652.010498046875	-304.155517578125	-544.923583984375	959.2294921875	-468.512451171875	-717.0601806640625	970.8212280273438	-145.2514801025391	-617.365234375	1012.815734863281	-132.5922241210938	-477.1431579589844	1000.534545898438	-376.0631713867188	-598.6743774414062	476.7508239746094	-445.8668518066406	-566.5468139648438	619.810546875	-457.1105041503906	-926.5101318359375	106.4470748901367	-544.631591796875	-756.4851684570312	310.1323547363281	-506.2432250976562	-769.1201782226562	41.71567916870117	-430.1900939941406	-836.365234375	55.04726409912109	-407.4618225097656	-825.4599609375	37.79088973999023	-525.3865356445312	-982.9137573242188	156.008544921875	-512.2850952148438	-524.8385009765625	510.2036743164062	-123.4657669067383	-621.8440551757812	764.2404174804688	-95.08128356933594	-475.8846740722656	32.59012222290039	-214.7919921875	-483.1255187988281	392.8840637207031	-134.4758911132812	-304.2627868652344	47.01137924194336	-86.08638000488281	-307.4415588378906	42.77630615234375	-156.7663421630859	-421.5376586914062	37.74565887451172	-118.1324844360352	-472.0914611816406	30.54018402099609	-298.9480895996094	
